<?xml version="1.0" encoding="UTF-8" standalone="no"?>
<!-- Created with Inkscape (http://www.inkscape.org/) -->

<svg
   width="23"
   height="23"
   viewBox="0 0 6.0854165 6.0854166"
   version="1.1"
   id="svg1"
   xmlns="http://www.w3.org/2000/svg"
   xmlns:svg="http://www.w3.org/2000/svg">
  <defs
     id="defs1" />
  <g
     id="layer1"
     transform="translate(-29.724973,-37.308756)">
    <g
       id="g7"
       transform="matrix(0.57305481,0,0,0.57305481,14.240352,17.039124)">
      <path
         id="path24"
         style="font-size:13.1093px;font-family:'Taamey D';-inkscape-font-specification:'Taamey D, Normal';stroke-width:0.662366"
         d="m 35.767181,40.235955 q -0.334201,0 -0.549813,-0.247953 -0.204833,-0.258737 -0.204833,-0.636059 0,-0.388103 0.215614,-0.636057 0.226392,-0.247955 0.539032,-0.247955 0.3342,0 0.539032,0.258735 0.215613,0.247955 0.215613,0.625277 0,0.388103 -0.215613,0.636059 -0.215613,0.247953 -0.539032,0.247953 z m 0,-2.738282 q -0.334201,0 -0.549813,-0.247956 -0.204833,-0.258734 -0.204833,-0.636057 0,-0.388103 0.215614,-0.636058 0.226392,-0.247955 0.539032,-0.247955 0.3342,0 0.539032,0.258735 0.215613,0.247955 0.215613,0.625278 0,0.388104 -0.215613,0.636057 -0.215613,0.247956 -0.539032,0.247956 z m -1.487728,2.576574 H 33.503245 V 35.78355 h 0.776208 z" />
      <path
         id="path22"
         style="font-size:13.1093px;font-family:'Taamey D';-inkscape-font-specification:'Taamey D, Normal';stroke-width:0.662366"
         d="m 29.102339,38.285532 q 0,0 0.09703,1.832709 H 28.38004 q -0.08625,-0.733084 -0.08625,-1.800367 0,-2.102226 1.886613,-2.555013 v 0.937916 q -0.560594,0.194051 -0.819328,0.549812 -0.258737,0.344982 -0.258736,1.034943 z m 2.102225,-0.01078 0.107807,1.84349 H 30.48226 q 0,-0.01078 -0.04312,-0.689962 -0.04312,-0.67918 -0.04312,-1.110406 0,-2.091445 1.886614,-2.565793 v 0.948696 q -0.549814,0.194051 -0.819329,0.549813 -0.258736,0.34498 -0.258736,1.024162 z" />
      <path
         style="font-size:13.1093px;font-family:'Taamey D';-inkscape-font-specification:'Taamey D, Normal';stroke-width:0.662366"
         d="m 31.419044,45.480192 h -2.608916 v -0.916356 h 1.821929 v -3.277315 h 0.786987 z"
         id="path21" />
      <path
         style="font-size:13.1093px;font-family:'Taamey D';-inkscape-font-specification:'Taamey D, Normal';stroke-width:0.662366"
         d="m 34.838961,43.086889 q 0,0 -0.129364,-1.897392 h 0.819329 q 0.118586,1.067283 0.118586,1.875831 0,2.102226 -1.875833,2.544232 v -0.927135 q 0.549813,-0.204834 0.80855,-0.560595 0.258734,-0.344979 0.258734,-1.034941 z"
         id="path20" />
    </g>
  </g>
</svg>
